<svg xmlns="http://www.w3.org/2000/svg" xmlns:xlink="http://www.w3.org/1999/xlink" viewBox="0 0 273.02 423.39"><defs><style>.cls-1{isolation:isolate;}.cls-2{fill:url(#Degradado_sin_nombre_850);}.cls-3{fill:url(#Degradado_sin_nombre_842);}.cls-4{fill:url(#Degradado_sin_nombre_832);}.cls-5{mix-blend-mode:overlay;fill:url(#Degradado_sin_nombre_805);}.cls-6{opacity:0.42;fill:url(#linear-gradient);}.cls-7{fill:url(#Degradado_sin_nombre_769);}.cls-8{fill:url(#Degradado_sin_nombre_747);}.cls-9{fill:url(#Degradado_sin_nombre_789);}.cls-10{fill:url(#Degradado_sin_nombre_733);}.cls-11{opacity:0.32;fill:url(#linear-gradient-2);}</style><linearGradient id="Degradado_sin_nombre_850" x1="213.74" y1="190.7" x2="386.51" y2="190.7" gradientUnits="userSpaceOnUse"><stop offset="0" stop-color="#c91517"/><stop offset="1" stop-color="#2a0056"/></linearGradient><linearGradient id="Degradado_sin_nombre_842" x1="187.54" y1="141.36" x2="335.77" y2="230.12" gradientUnits="userSpaceOnUse"><stop offset="0" stop-color="#c92217" stop-opacity="0"/><stop offset="1" stop-color="#2a0056"/></linearGradient><linearGradient id="Degradado_sin_nombre_832" x1="325.72" y1="343.09" x2="325.72" y2="60.76" gradientUnits="userSpaceOnUse"><stop offset="0" stop-color="#9f1915"/><stop offset="1" stop-color="#ae38ff"/></linearGradient><linearGradient id="Degradado_sin_nombre_805" x1="312.83" y1="211.72" x2="428.49" y2="249.17" gradientUnits="userSpaceOnUse"><stop offset="0" stop-color="#e52516"/><stop offset="0.09" stop-color="#df2730" stop-opacity="0.89"/><stop offset="0.34" stop-color="#ce2d79" stop-opacity="0.57"/><stop offset="0.56" stop-color="#c032b3" stop-opacity="0.33"/><stop offset="0.76" stop-color="#b635dc" stop-opacity="0.15"/><stop offset="0.91" stop-color="#b037f6" stop-opacity="0.04"/><stop offset="1" stop-color="#ae38ff" stop-opacity="0"/></linearGradient><linearGradient id="linear-gradient" x1="237.03" y1="214.74" x2="390.32" y2="290.15" gradientUnits="userSpaceOnUse"><stop offset="0" stop-color="#8a0bff"/><stop offset="1" stop-color="#2a0056" stop-opacity="0"/></linearGradient><linearGradient id="Degradado_sin_nombre_769" x1="113.49" y1="309.3" x2="286.26" y2="309.3" gradientUnits="userSpaceOnUse"><stop offset="0" stop-color="#ce0b10"/><stop offset="1" stop-color="#ff0ba2"/></linearGradient><linearGradient id="Degradado_sin_nombre_747" x1="196.81" y1="270.19" x2="298.47" y2="409.89" gradientUnits="userSpaceOnUse"><stop offset="0" stop-color="#b41918"/><stop offset="1" stop-color="#e33fc5"/></linearGradient><linearGradient id="Degradado_sin_nombre_789" x1="174.28" y1="439.24" x2="174.28" y2="156.91" gradientUnits="userSpaceOnUse"><stop offset="0" stop-color="#b41e17"/><stop offset="1" stop-color="#ff39ff"/></linearGradient><linearGradient id="Degradado_sin_nombre_733" x1="80.61" y1="235.43" x2="289.05" y2="330.88" gradientUnits="userSpaceOnUse"><stop offset="0" stop-color="#b41918"/><stop offset="1" stop-color="#ff39ff" stop-opacity="0"/></linearGradient><linearGradient id="linear-gradient-2" x1="103.53" y1="278.89" x2="256.82" y2="354.3" gradientTransform="translate(366.5 564.15) rotate(180)" xlink:href="#linear-gradient"/></defs><g class="cls-1"><g id="OBJECTS"><path class="cls-2" d="M263.52,38.3H213.74l102.4,200.21-51.2,104.58h60.28a23.6,23.6,0,0,0,21.21-13.23l36.08-73.69A39.27,39.27,0,0,0,382.2,221l-82-160.25A41.25,41.25,0,0,0,263.52,38.3Z" transform="translate(-113.49 -38.3)"/><path class="cls-3" d="M263.52,38.3H213.74l102.4,200.21-51.2,104.58h60.28a23.6,23.6,0,0,0,21.21-13.23l36.08-73.69A39.27,39.27,0,0,0,382.2,221l-82-160.25A41.25,41.25,0,0,0,263.52,38.3Z" transform="translate(-113.49 -38.3)"/><path class="cls-4" d="M300.24,60.76c40.82,79.81,44,120.34,15.9,177.75l-51.2,104.58h60.28a23.6,23.6,0,0,0,21.21-13.23l36.08-73.69A39.27,39.27,0,0,0,382.2,221Z" transform="translate(-113.49 -38.3)"/><path class="cls-5" d="M300.24,60.76c40.82,79.81,44,120.34,15.9,177.75l-51.2,104.58h60.28a23.6,23.6,0,0,0,21.21-13.23l36.08-73.69A39.27,39.27,0,0,0,382.2,221Z" transform="translate(-113.49 -38.3)"/><path class="cls-6" d="M382.2,221,359.08,175.8c1.58,25.9-4.68,49.52-18.14,77l-44.21,90.3h28.49a23.6,23.6,0,0,0,21.21-13.23l36.08-73.69A39.27,39.27,0,0,0,382.2,221Z" transform="translate(-113.49 -38.3)"/><path class="cls-7" d="M236.48,461.7h49.78L183.86,261.49l51.2-104.58H174.78a23.6,23.6,0,0,0-21.21,13.23l-36.08,73.69A39.27,39.27,0,0,0,117.8,279l82,160.25A41.25,41.25,0,0,0,236.48,461.7Z" transform="translate(-113.49 -38.3)"/><path class="cls-8" d="M236.48,461.7h49.78L183.86,261.49l51.2-104.58H174.78a23.6,23.6,0,0,0-21.21,13.23l-36.08,73.69A39.27,39.27,0,0,0,117.8,279l82,160.25A41.25,41.25,0,0,0,236.48,461.7Z" transform="translate(-113.49 -38.3)"/><path class="cls-9" d="M199.76,439.24c-40.82-79.81-44-120.34-15.9-177.75l51.2-104.58H174.78a23.6,23.6,0,0,0-21.21,13.23l-36.08,73.69A39.27,39.27,0,0,0,117.8,279Z" transform="translate(-113.49 -38.3)"/><path class="cls-10" d="M199.76,439.24c-40.82-79.81-44-120.34-15.9-177.75l51.2-104.58H174.78a23.6,23.6,0,0,0-21.21,13.23l-36.08,73.69A39.27,39.27,0,0,0,117.8,279Z" transform="translate(-113.49 -38.3)"/><path class="cls-11" d="M117.8,279l23.12,45.21c-1.58-25.9,4.68-49.52,18.14-77l44.21-90.3H174.78a23.6,23.6,0,0,0-21.21,13.23l-36.08,73.69A39.27,39.27,0,0,0,117.8,279Z" transform="translate(-113.49 -38.3)"/></g></g></svg>